# xmcd
#
# Track frame offsets:
#	150
#	15223
#	29995
#	46120
#	61201
#	80517
#	95662
#	113435
#	133044
#	148117
#	162889
#	179014
#	194095
#	213411
#	228556
#	246329
#
# Disc length: 3545 seconds
#
# Revision: 1
# Processed by: cddbd v1.5.2PL0 Copyright (c) Steve Scherf et al.
# Submitted via: audiograbber 1.83.01
#
DISCID=e50dd710
DTITLE=SuperHits 83 - CDGSH-083
DYEAR=1900
DGENRE=
TTITLE0=Tim McGraw - Real Good Man
TTITLE1=Brian McComas - 99.9% Sure (I've Never Been Here Before)
TTITLE2=Buddy Jewell - Help Pour Out The Rain (Lacey's Song)
TTITLE3=Joe Nichols - She Only Smokes When She Drinks
TTITLE4=Sara Evans - Backseat Of A Greyhound Bus
TTITLE5=Faith Hill - You're Still Here
TTITLE6=Tim McGraw - Unbroken
TTITLE7=Trace Adkins - Then They Do
TTITLE8=Tim McGraw - Real Good Man - Vocal
TTITLE9=Brian McComas - 99.9% Sure (I've Never Been Here Before) - Vocal
TTITLE10=Buddy Jewell - Help Pour Out The Rain (Lacey's Song) - Vocal
TTITLE11=Joe Nichols - She Only Smokes When She Drinks - Vocal
TTITLE12=Sara Evans - Backseat Of A Greyhound Bus - Vocal
TTITLE13=Faith Hill - You're Still Here - Vocal
TTITLE14=Tim McGraw - Unbroken - Vocal
TTITLE15=Trace Adkins - Then They Do - Vocal
EXTD=
EXTT0=
EXTT1=
EXTT2=
EXTT3=
EXTT4=
EXTT5=
EXTT6=
EXTT7=
EXTT8=
EXTT9=
EXTT10=
EXTT11=
EXTT12=
EXTT13=
EXTT14=
EXTT15=
PLAYORDER=
